<svg width="35" height="13" viewBox="0 12 35 11" fill="none" xmlns="http://www.w3.org/2000/svg">
<circle cx="17.5" cy="17.5" r="17.5" fill="white"/>
<path fill-rule="evenodd" clip-rule="evenodd" d="M8.95 23.2C8.68084 23.2 8.45521 23.109 8.27312 22.9269C8.09104 22.7448 8 22.5191 8 22.25V8.95C8 8.68084 8.09104 8.45521 8.27312 8.27312C8.45521 8.09104 8.68084 8 8.95 8C9.07666 8 9.35771 8.07521 9.79313 8.22563C10.2285 8.37604 10.8104 8.53834 11.5387 8.7125C12.2671 8.88666 13.126 9.04896 14.1156 9.19937C15.1052 9.34979 16.2334 9.425 17.5 9.425C18.7666 9.425 19.8948 9.34979 20.8844 9.19937C21.874 9.04896 22.7329 8.88666 23.4612 8.7125C24.1896 8.53834 24.7715 8.37604 25.2069 8.22563C25.6423 8.07521 25.9234 8 26.05 8C26.3191 8 26.5448 8.09104 26.7269 8.27312C26.909 8.45521 27 8.68084 27 8.95V22.25C27 22.5191 26.909 22.7448 26.7269 22.9269C26.5448 23.109 26.3191 23.2 26.05 23.2C25.9234 23.2 25.6423 23.1248 25.2069 22.9744C24.7715 22.824 24.1896 22.6616 23.4612 22.4875C23.3759 22.4671 23.2889 22.4468 23.2 22.4268V20.4824C23.8385 20.6206 24.4718 20.7822 25.1 20.9675V10.2562C23.865 10.6204 22.6102 10.8896 21.3356 11.0637C20.061 11.2379 18.7825 11.325 17.5 11.325C16.2175 11.325 14.939 11.2379 13.6644 11.0637C12.3898 10.8896 11.135 10.6204 9.9 10.2562V20.9675C10.5282 20.7822 11.1615 20.6206 11.8 20.4824V22.4268C11.7111 22.4468 11.624 22.4671 11.5387 22.4875C10.8104 22.6616 10.2285 22.824 9.79313 22.9744C9.35771 23.1248 9.07666 23.2 8.95 23.2ZM15.4872 19.5128C16.0454 20.071 16.7162 20.35 17.5 20.35C18.2837 20.35 18.9546 20.071 19.5129 19.5128C20.071 18.9546 20.35 18.2837 20.35 17.5C20.35 16.7162 20.071 16.0454 19.5129 15.4871C18.9546 14.929 18.2837 14.65 17.5 14.65C16.7162 14.65 16.0454 14.929 15.4872 15.4871C14.9291 16.0454 14.65 16.7162 14.65 17.5C14.65 18.2837 14.9291 18.9546 15.4872 19.5128ZM11.8 25.1396V26.05H23.2V25.1396C23.2 24.5063 23.0456 23.9257 22.7369 23.3979C22.4281 22.8702 22.0006 22.4743 21.4544 22.2104C20.8369 21.9202 20.2016 21.6959 19.5484 21.5375C18.8954 21.3791 18.2125 21.3 17.5 21.3C16.7875 21.3 16.1046 21.3791 15.4516 21.5375C14.7984 21.6959 14.1631 21.9202 13.5456 22.2104C12.9994 22.4743 12.5719 22.8702 12.2631 23.3979C11.9544 23.9257 11.8 24.5063 11.8 25.1396Z" fill="#FFA2B3"/>
</svg>
