<svg width="35" height="35" viewBox="0 0 35 35" fill="none" xmlns="http://www.w3.org/2000/svg">
<circle cx="17.5" cy="17.5" r="17.5" fill="white"/>
<mask id="mask0_5316_33597" style="mask-type:luminance" maskUnits="userSpaceOnUse" x="8" y="16" width="18" height="10">
<path d="M8 16.4336H26V25.3285H8V16.4336Z" fill="white"/>
</mask>
<g mask="url(#mask0_5316_33597)">
<path d="M25.9951 23.5476V16.4775C25.8996 16.5713 25.7958 16.6608 25.6898 16.7423C25.5922 16.8177 25.4904 16.8869 25.3844 16.9523C25.0364 17.1641 24.6496 17.3088 24.2447 17.372C23.6991 17.4554 23.1353 17.4229 22.5837 17.4229H18.6835C18.6694 17.4229 18.6552 17.4229 18.6409 17.4208V17.6735C18.6409 17.7041 18.6429 17.7327 18.6409 17.763C18.6326 17.9282 18.5105 18.0505 18.3458 18.0586C18.0547 18.0729 17.7594 18.0586 17.4663 18.0586H16.0456C15.9215 18.0586 15.7973 18.0606 15.673 18.0586C15.488 18.0545 15.3596 17.9302 15.3576 17.7427C15.3556 17.6369 15.3556 17.5289 15.3556 17.4229C15.3433 17.4249 15.329 17.4249 15.317 17.4249C15.3087 17.4249 15.2985 17.4249 15.2904 17.4249C14.7369 17.4331 14.1811 17.4249 13.6275 17.4249H11.1543C10.5436 17.4249 9.91878 17.4637 9.32838 17.2742C9.08217 17.1947 8.84199 17.0867 8.6161 16.9543C8.51007 16.8912 8.40829 16.8237 8.31074 16.7505C8.20271 16.6691 8.10092 16.5813 8.00539 16.4876V24.1936C8.00539 24.2505 8.00338 24.3077 8.00739 24.3646C8.04802 24.9025 8.48574 25.3182 9.02503 25.3264C9.15739 25.3284 9.28775 25.3264 9.42012 25.3264H24.4237C24.5989 25.3264 24.7759 25.3264 24.9509 25.3264C25.5453 25.3244 25.9931 24.8557 25.9951 24.2668C25.9951 24.0224 25.9951 23.786 25.9951 23.5476Z" fill="#25C92B"/>
</g>
<mask id="mask1_5316_33597" style="mask-type:luminance" maskUnits="userSpaceOnUse" x="8" y="9" width="18" height="8">
<path d="M8 9H26V16.4337H8V9Z" fill="white"/>
</mask>
<g mask="url(#mask1_5316_33597)">
<path d="M25.9895 13.3255V12.6246C25.9508 12.0907 25.5151 11.6711 24.9738 11.6628C24.937 11.6628 24.9024 11.6628 24.8658 11.6628H20.5017V10.1409C20.5017 9.83111 20.4142 9.53781 20.1903 9.3137C19.9805 9.10165 19.6977 9.00388 19.4026 9.00187C19.1359 9.00187 18.8714 9.00187 18.6046 9.00187H14.7066C14.6557 9.00187 14.6049 8.99986 14.556 9.00187C13.9718 9.01415 13.5118 9.47665 13.4975 10.0615C13.4852 10.5932 13.4915 11.1291 13.4955 11.6628H9.24124C9.17829 11.6628 9.11713 11.6628 9.05396 11.6628C8.78119 11.6628 8.52673 11.7566 8.32539 11.9441C8.12985 12.1273 8.02606 12.378 8.00977 12.6409V13.6291C8.00977 13.7717 8.00977 13.9124 8.00977 14.0548C8.00977 14.1159 8.00977 14.1751 8.01378 14.2362C8.01602 14.2791 8.02003 14.3197 8.02405 14.3626C8.02405 14.3686 8.02606 14.3749 8.02606 14.3809C8.03633 14.44 8.04436 14.499 8.05664 14.5561C8.08722 14.6987 8.13186 14.8394 8.18276 14.9758C8.18276 14.9778 8.18276 14.9778 8.18477 14.98C8.18477 14.982 8.18477 14.982 8.187 14.984C8.18901 14.988 8.18901 14.99 8.19102 14.9943C8.20307 15.0226 8.21735 15.0512 8.23164 15.0798C8.2582 15.1327 8.28454 15.1836 8.31311 15.2347C8.31713 15.2427 8.32115 15.251 8.3274 15.257C8.36602 15.3222 8.40664 15.3874 8.45151 15.4485C8.46981 15.4751 8.49012 15.4974 8.50642 15.524C8.50441 15.5199 8.5024 15.5157 8.50039 15.5117C8.50441 15.5177 8.50642 15.522 8.51044 15.526C8.54503 15.5688 8.58186 15.6115 8.62048 15.6523C8.67941 15.7155 8.74258 15.7766 8.80776 15.8356C8.8341 15.8601 8.86066 15.8824 8.88923 15.905C8.89325 15.909 8.89927 15.913 8.90552 15.9173C8.94012 15.9396 8.95419 15.9476 8.95642 15.9499C8.95419 15.9499 8.94414 15.9416 8.92985 15.9336C8.97249 15.9619 9.01334 15.9945 9.05597 16.0231C9.17003 16.0965 9.28811 16.1617 9.41021 16.2186C9.52829 16.2554 9.46512 16.2412 9.42651 16.2269C9.43052 16.2289 9.43253 16.2289 9.43677 16.2309C9.47137 16.2432 9.50396 16.2574 9.53856 16.2677C9.60352 16.29 9.66869 16.3104 9.73387 16.3287C9.80508 16.3472 9.87628 16.3635 9.94972 16.3775C9.97405 16.3818 9.99838 16.3858 10.0229 16.3898C10.0372 16.3918 10.0515 16.3918 10.0636 16.3938C10.2448 16.4101 10.4281 16.4061 10.6091 16.4061H15.3214C15.3357 16.4061 15.3499 16.4061 15.364 16.4081V15.9173C15.364 15.7746 15.3437 15.6217 15.4598 15.5157C15.5595 15.4242 15.6897 15.4383 15.814 15.4383H18.277C18.3013 15.4383 18.3278 15.4383 18.3522 15.4383C18.5109 15.4465 18.6229 15.5566 18.6432 15.7092C18.6453 15.7175 18.6453 15.7255 18.6453 15.7338C18.6453 15.7378 18.6453 15.742 18.6453 15.7461V16.4101C18.6595 16.4081 18.6738 16.4081 18.6881 16.4081H18.7145C19.254 16.3981 19.7932 16.4081 20.3307 16.4081H23.6852C23.7727 16.4081 23.8582 16.4041 23.9457 16.3961C23.962 16.3938 23.9803 16.3918 23.9966 16.3898C24.0171 16.3858 24.0395 16.3838 24.0598 16.3798C24.131 16.3655 24.2044 16.3512 24.2756 16.3309C24.3468 16.3124 24.416 16.29 24.4852 16.2655C24.5178 16.2534 24.5484 16.2412 24.581 16.2289C24.7071 16.1697 24.8272 16.1066 24.9432 16.0313C24.9819 16.0068 25.0185 15.9825 25.0551 15.9559C25.0653 15.9476 25.0979 15.9233 25.1122 15.913L25.1142 15.911C25.1162 15.909 25.1203 15.907 25.1203 15.905C25.1488 15.8824 25.1752 15.8581 25.2017 15.8356C25.2669 15.7787 25.3278 15.7175 25.389 15.6523C25.4276 15.6115 25.4642 15.5708 25.4988 15.526C25.5008 15.522 25.5051 15.5199 25.5071 15.5157C25.5234 15.4894 25.5457 15.4628 25.564 15.4383C25.6026 15.3833 25.6392 15.3262 25.6718 15.2693C25.6781 15.257 25.6861 15.2447 25.6924 15.2347C25.7227 15.1795 25.7533 15.1246 25.7799 15.0675C25.7919 15.0409 25.8062 15.0126 25.8185 14.986C25.8694 14.8516 25.9142 14.715 25.9446 14.5724C25.9549 14.5275 25.9629 14.4807 25.9711 14.4358V14.4338V14.4318C25.9711 14.4298 25.9711 14.4278 25.9711 14.4258C25.9711 14.4237 25.9711 14.4217 25.9732 14.4195C25.9752 14.3992 25.9792 14.3726 25.9812 14.3563C25.9854 14.3197 25.9874 14.2811 25.9895 14.2443C25.9915 14.1854 25.9935 14.1262 25.9955 14.067V13.6637C25.9915 13.5434 25.9895 13.4356 25.9895 13.3255ZM19.4901 10.0695C19.4901 10.0715 19.4901 10.0735 19.4921 10.0735V10.0755C19.4941 10.0858 19.4962 10.0918 19.4921 10.0818C19.4901 10.0838 19.4861 10.0798 19.4839 10.0755C19.4941 10.6054 19.4901 11.1351 19.4861 11.6648H14.5133V10.1836C14.5133 10.149 14.5133 10.1124 14.5133 10.0778C14.5071 10.0858 14.5031 10.0878 14.5011 10.0858C14.497 10.0918 14.497 10.0798 14.4991 10.0655C14.4888 10.0778 14.4828 10.0798 14.4991 10.0615C14.4991 10.0532 14.5011 10.0472 14.5031 10.0389C14.5031 10.0389 14.5031 10.0389 14.5011 10.0389C14.5011 10.0389 14.5011 10.0389 14.5031 10.0389C14.5051 10.0349 14.5051 10.0289 14.5071 10.0246C14.4928 10.0246 14.497 10.0206 14.5091 10.0186C14.5111 10.0083 14.5153 10.0043 14.5153 10.0166C14.5194 10.0166 14.5234 10.0146 14.5296 10.0146C14.5296 10.0124 14.5296 10.0124 14.5296 10.0104V10.0124C14.5377 10.0104 14.5437 10.0104 14.552 10.0083C14.56 10.0003 14.5642 9.9983 14.5662 9.99607C14.5642 9.9983 14.56 10.0023 14.554 10.0083C14.5703 10.0063 14.5825 10.0063 14.5763 10.0104C14.5783 10.0124 14.5763 10.0166 14.5682 10.0226C14.5845 10.0226 14.6008 10.0226 14.6171 10.0226H19.26C19.3211 10.0226 19.3801 10.0206 19.4412 10.0226C19.4372 10.0206 19.4352 10.0206 19.433 10.0186C19.4189 10.0104 19.4229 10.0083 19.433 10.0063C19.427 10.0023 19.429 10.0023 19.4352 10.0063C19.4372 10.0063 19.4412 10.0063 19.4432 10.0063C19.4352 10.0003 19.431 9.99607 19.429 9.99406C19.429 9.99406 19.4352 9.9983 19.4453 10.0063C19.4535 10.0063 19.4616 10.0083 19.4698 10.0083C19.4738 10.0083 19.4758 10.0104 19.4799 10.0104C19.4799 10.0063 19.4799 10.0043 19.4819 10.0043C19.4819 10.0043 19.4839 10.0063 19.4839 10.0104C19.5022 10.0146 19.5104 10.0186 19.4839 10.0206C19.4839 10.0246 19.4839 10.0266 19.4839 10.0309C19.4901 10.0329 19.4941 10.0349 19.4962 10.0349C19.4941 10.0349 19.4881 10.0349 19.4839 10.0329V10.0349C19.4861 10.0369 19.4901 10.0389 19.4941 10.0429C19.4921 10.0429 19.4901 10.0409 19.4861 10.0389C19.4861 10.0429 19.4881 10.0452 19.4881 10.0492C19.4941 10.0572 19.5022 10.0655 19.5084 10.0695C19.5022 10.0655 19.4962 10.0592 19.4901 10.0552C19.4901 10.0635 19.4901 10.0655 19.4901 10.0695Z" fill="#25C92B"/>
</g>
</svg>
