<svg width="56" height="56"  viewBox="4 4 45 41" fill="none" xmlns="http://www.w3.org/2000/svg">
<g filter="url(#filter0_d_3311_2810)">
<rect x="7.7998" y="3" width="40" height="40" rx="16.1673" fill="#F23538"/>
</g>
<path d="M27.7998 29.667C28.5081 29.667 29.1887 29.5594 29.8415 29.3441C30.4942 29.1288 31.1054 28.8198 31.6748 28.417C31.1054 28.0142 30.4942 27.7052 29.8415 27.4899C29.1887 27.2746 28.5081 27.167 27.7998 27.167C27.0915 27.167 26.4109 27.2746 25.7581 27.4899C25.1054 27.7052 24.4942 28.0142 23.9248 28.417C24.4942 28.8198 25.1054 29.1288 25.7581 29.3441C26.4109 29.5594 27.0915 29.667 27.7998 29.667ZM30.0081 22.8337L28.8206 21.6462C28.8901 21.535 28.9456 21.417 28.9873 21.292C29.029 21.167 29.0498 21.042 29.0498 20.917C29.0498 20.5698 28.9283 20.2746 28.6852 20.0316C28.4422 19.7885 28.147 19.667 27.7998 19.667C27.6748 19.667 27.5498 19.6878 27.4248 19.7295C27.2998 19.7712 27.1817 19.8267 27.0706 19.8962L25.8831 18.7087C26.147 18.4725 26.4422 18.2955 26.7686 18.1774C27.0949 18.0594 27.4387 18.0003 27.7998 18.0003C28.6054 18.0003 29.2929 18.285 29.8623 18.8545C30.4317 19.4239 30.7165 20.1114 30.7165 20.917C30.7165 21.2781 30.6574 21.6219 30.5394 21.9482C30.4213 22.2746 30.2442 22.5698 30.0081 22.8337ZM34.7581 27.5837L33.5498 26.3753C33.8554 25.8614 34.0845 25.3198 34.2373 24.7503C34.3901 24.1809 34.4665 23.5975 34.4665 23.0003C34.4665 21.1392 33.8206 19.5628 32.529 18.2712C31.2373 16.9795 29.6609 16.3337 27.7998 16.3337C27.2026 16.3337 26.6192 16.41 26.0498 16.5628C25.4804 16.7156 24.9387 16.9448 24.4248 17.2503L23.2165 16.042C23.897 15.5975 24.6262 15.2573 25.404 15.0212C26.1817 14.785 26.9804 14.667 27.7998 14.667C28.9526 14.667 30.0359 14.8857 31.0498 15.3232C32.0637 15.7607 32.9456 16.3545 33.6956 17.1045C34.4456 17.8545 35.0394 18.7364 35.4769 19.7503C35.9144 20.7642 36.1331 21.8475 36.1331 23.0003C36.1331 23.8198 36.0151 24.6184 35.779 25.3962C35.5429 26.1739 35.2026 26.9031 34.7581 27.5837ZM27.7998 31.3337C26.647 31.3337 25.5637 31.1149 24.5498 30.6774C23.5359 30.2399 22.654 29.6462 21.904 28.8962C21.154 28.1462 20.5602 27.2642 20.1227 26.2503C19.6852 25.2364 19.4665 24.1531 19.4665 23.0003C19.4665 22.1809 19.5811 21.3823 19.8102 20.6045C20.0394 19.8267 20.3762 19.0906 20.8206 18.3962L18.3623 15.917L19.5498 14.7295L36.0498 31.2295L34.8623 32.417L22.0498 19.6253C21.7442 20.1392 21.5151 20.6809 21.3623 21.2503C21.2095 21.8198 21.1331 22.4031 21.1331 23.0003C21.1331 23.792 21.2651 24.5489 21.529 25.2712C21.7929 25.9934 22.1748 26.6531 22.6748 27.2503C23.4248 26.6809 24.2338 26.2469 25.1019 25.9482C25.9699 25.6496 26.8692 25.5003 27.7998 25.5003C28.3276 25.5003 28.8554 25.5559 29.3831 25.667C29.9109 25.7781 30.4248 25.9309 30.9248 26.1253L33.6956 28.8962C32.904 29.6878 32.0012 30.292 30.9873 30.7087C29.9734 31.1253 28.9109 31.3337 27.7998 31.3337Z" fill="white"/>
<defs>
<filter id="filter0_d_3311_2810" x="0.389798" y="0.305452" width="54.82" height="54.82" filterUnits="userSpaceOnUse" color-interpolation-filters="sRGB">
<feFlood flood-opacity="0" result="BackgroundImageFix"/>
<feColorMatrix in="SourceAlpha" type="matrix" values="0 0 0 0 0 0 0 0 0 0 0 0 0 0 0 0 0 0 127 0" result="hardAlpha"/>
<feOffset dy="4.71546"/>
<feGaussianBlur stdDeviation="3.705"/>
<feColorMatrix type="matrix" values="0 0 0 0 0 0 0 0 0 0 0 0 0 0 0 0 0 0 0.02 0"/>
<feBlend mode="normal" in2="BackgroundImageFix" result="effect1_dropShadow_3311_2810"/>
<feBlend mode="normal" in="SourceGraphic" in2="effect1_dropShadow_3311_2810" result="shape"/>
</filter>
</defs>
</svg>
