<svg width="56" height="56" viewBox="4 4 45 41"
fill="none" xmlns="http://www.w3.org/2000/svg">
<g filter="url(#filter0_d_3311_2762)">
<rect x="8" y="3" width="40" height="40" rx="16.1673" fill="#F89407"/>
</g>
<g clip-path="url(#clip0_3311_2762)">
<path d="M25.5003 23.0003C27.1087 23.0003 28.417 21.692 28.417 20.0837C28.417 18.4753 27.1087 17.167 25.5003 17.167C23.892 17.167 22.5837 18.4753 22.5837 20.0837C22.5837 21.692 23.892 23.0003 25.5003 23.0003ZM25.5003 18.8337C26.192 18.8337 26.7503 19.392 26.7503 20.0837C26.7503 20.7753 26.192 21.3337 25.5003 21.3337C24.8087 21.3337 24.2503 20.7753 24.2503 20.0837C24.2503 19.392 24.8087 18.8337 25.5003 18.8337ZM25.542 27.167H21.9753C22.8003 26.7503 24.2253 26.3337 25.5003 26.3337C25.592 26.3337 25.692 26.342 25.7837 26.342C26.067 25.7337 26.5587 25.2337 27.1503 24.8337C26.542 24.7253 25.967 24.667 25.5003 24.667C23.5503 24.667 19.667 25.642 19.667 27.5837V28.8337H25.5003V27.5837C25.5003 27.442 25.517 27.3003 25.542 27.167ZM31.7503 25.0837C30.217 25.0837 27.167 25.9253 27.167 27.5837V28.8337H36.3337V27.5837C36.3337 25.9253 33.2837 25.0837 31.7503 25.0837ZM32.7587 23.567C33.392 23.2087 33.8337 22.5337 33.8337 21.7503C33.8337 20.6003 32.9003 19.667 31.7503 19.667C30.6003 19.667 29.667 20.6003 29.667 21.7503C29.667 22.5337 30.1087 23.2087 30.742 23.567C31.042 23.7337 31.3837 23.8337 31.7503 23.8337C32.117 23.8337 32.4587 23.7337 32.7587 23.567Z" fill="white"/>
</g>
<defs>
<filter id="filter0_d_3311_2762" x="0.589993" y="0.305452" width="54.82" height="54.82" filterUnits="userSpaceOnUse" color-interpolation-filters="sRGB">
<feFlood flood-opacity="0" result="BackgroundImageFix"/>
<feColorMatrix in="SourceAlpha" type="matrix" values="0 0 0 0 0 0 0 0 0 0 0 0 0 0 0 0 0 0 127 0" result="hardAlpha"/>
<feOffset dy="4.71546"/>
<feGaussianBlur stdDeviation="3.705"/>
<feColorMatrix type="matrix" values="0 0 0 0 0 0 0 0 0 0 0 0 0 0 0 0 0 0 0.02 0"/>
<feBlend mode="normal" in2="BackgroundImageFix" result="effect1_dropShadow_3311_2762"/>
<feBlend mode="normal" in="SourceGraphic" in2="effect1_dropShadow_3311_2762" result="shape"/>
</filter>
<clipPath id="clip0_3311_2762">
<rect width="20" height="20" fill="white" transform="translate(18 13)"/>
</clipPath>
</defs>
</svg>
