<svg width="30" height="30" viewBox="0 0 30 30" fill="none" xmlns="http://www.w3.org/2000/svg">
<path d="M15.3504 13.5915C14.4131 13.5817 13.4997 13.2947 12.7252 12.7668C11.9507 12.2389 11.3496 11.4937 10.9978 10.6249C10.6459 9.75613 10.559 8.80268 10.7478 7.88459C10.9367 6.9665 11.393 6.12481 12.0593 5.4655C12.7255 4.8062 13.5719 4.35874 14.4919 4.17948C15.412 4.00022 16.3645 4.09716 17.2295 4.45809C18.0945 4.81903 18.8335 5.42783 19.3532 6.20785C19.873 6.98786 20.1503 7.90421 20.1504 8.84154C20.1416 10.1073 19.6314 11.3179 18.7317 12.2082C17.8321 13.0985 16.6161 13.596 15.3504 13.5915ZM15.3504 5.7582C14.7428 5.76806 14.1517 5.95723 13.6512 6.30197C13.1508 6.6467 12.7634 7.13163 12.5377 7.69583C12.3119 8.26003 12.258 8.87835 12.3825 9.47313C12.5071 10.0679 12.8046 10.6126 13.2378 11.0388C13.6709 11.4651 14.2203 11.7538 14.817 11.8688C15.4137 11.9837 16.0311 11.9198 16.5916 11.6851C17.1521 11.4503 17.6307 11.0551 17.9674 10.5492C18.304 10.0433 18.4836 9.44921 18.4837 8.84154C18.4749 8.01784 18.1404 7.23113 17.5533 6.65335C16.9661 6.07558 16.1741 5.75375 15.3504 5.7582Z" fill="#007EF2"/>
<path d="M15.35 13.5915C14.4127 13.5817 13.4993 13.2947 12.7248 12.7668C11.9503 12.2389 11.3492 11.4937 10.9974 10.6249C10.6455 9.75613 10.5586 8.80268 10.7474 7.88459C10.9363 6.9665 11.3926 6.12481 12.0589 5.4655C12.7251 4.8062 13.5715 4.35874 14.4916 4.17948C15.4116 4.00022 16.3641 4.09716 17.2291 4.45809C18.0941 4.81903 18.8331 5.42783 19.3528 6.20785C19.8726 6.98786 20.1499 7.90421 20.15 8.84154C20.1412 10.1073 19.6311 11.3179 18.7314 12.2082C17.8317 13.0985 16.6157 13.596 15.35 13.5915ZM15.35 5.7582C14.7424 5.76806 14.1513 5.95723 13.6508 6.30197C13.1504 6.6467 12.763 7.13163 12.5373 7.69583C12.3115 8.26003 12.2576 8.87835 12.3821 9.47313C12.5067 10.0679 12.8042 10.6126 13.2374 11.0388C13.6705 11.4651 14.2199 11.7538 14.8166 11.8688C15.4133 11.9837 16.0307 11.9198 16.5912 11.6851C17.1517 11.4503 17.6303 11.0551 17.967 10.5492C18.3036 10.0433 18.4833 9.44921 18.4833 8.84154C18.4745 8.01784 18.14 7.23113 17.5529 6.65335C16.9657 6.07558 16.1737 5.75375 15.35 5.7582ZM18.2583 14.7082C14.5621 14.065 10.757 14.6504 7.425 16.3749C7.18848 16.5062 6.99263 16.7 6.85888 16.9352C6.72513 17.1704 6.65864 17.4378 6.66667 17.7082V20.6749C6.66667 20.8959 6.75446 21.1078 6.91074 21.2641C7.06702 21.4204 7.27899 21.5082 7.5 21.5082C7.72101 21.5082 7.93297 21.4204 8.08925 21.2641C8.24553 21.1078 8.33333 20.8959 8.33333 20.6749V17.8165C11.4231 16.2662 14.9367 15.7743 18.3333 16.4165L18.2583 14.7082Z" fill="#007EF2"/>
<path d="M27.4997 18.3333H21.9163V17.0999C21.9163 16.8789 21.8285 16.667 21.6723 16.5107C21.516 16.3544 21.304 16.2666 21.083 16.2666C20.862 16.2666 20.65 16.3544 20.4938 16.5107C20.3375 16.667 20.2497 16.8789 20.2497 17.0999V18.3333H14.1663C13.9453 18.3333 13.7334 18.4211 13.5771 18.5773C13.4208 18.7336 13.333 18.9456 13.333 19.1666V27.4999C13.333 27.7209 13.4208 27.9329 13.5771 28.0892C13.7334 28.2455 13.9453 28.3333 14.1663 28.3333H27.4997C27.7207 28.3333 27.9327 28.2455 28.0889 28.0892C28.2452 27.9329 28.333 27.7209 28.333 27.4999V19.1666C28.333 18.9456 28.2452 18.7336 28.0889 18.5773C27.9327 18.4211 27.7207 18.3333 27.4997 18.3333ZM26.6663 26.6666H14.9997V19.9999H20.2497V20.3416C20.2497 20.5626 20.3375 20.7746 20.4938 20.9309C20.65 21.0871 20.862 21.1749 21.083 21.1749C21.304 21.1749 21.516 21.0871 21.6723 20.9309C21.8285 20.7746 21.9163 20.5626 21.9163 20.3416V19.9999H26.6663V26.6666Z" fill="#007EF2"/>
<path d="M18.1753 22.8504H23.142V24.0171H18.1753V22.8504ZM9.03366 10.2004C6.72653 10.239 4.45941 10.8094 2.40866 11.8671C2.18563 11.9849 1.99881 12.1611 1.86817 12.3769C1.73754 12.5926 1.668 12.8399 1.66699 13.0921V15.6754C1.66699 15.8964 1.75479 16.1084 1.91107 16.2647C2.06735 16.421 2.27931 16.5088 2.50033 16.5088C2.72134 16.5088 2.9333 16.421 3.08958 16.2647C3.24586 16.1084 3.33366 15.8964 3.33366 15.6754V13.2588C5.29307 12.2834 7.46246 11.8055 9.65032 11.8671C9.36407 11.3448 9.15629 10.7832 9.03366 10.2004ZM27.592 11.8588C25.7527 10.8939 23.7313 10.3261 21.6587 10.1921C21.5366 10.7739 21.3317 11.3351 21.0503 11.8588C23.0029 11.9055 24.9209 12.3836 26.667 13.2588V15.6754C26.667 15.8964 26.7548 16.1084 26.9111 16.2647C27.0673 16.421 27.2793 16.5088 27.5003 16.5088C27.7213 16.5088 27.9333 16.421 28.0896 16.2647C28.2459 16.1084 28.3337 15.8964 28.3337 15.6754V13.0921C28.3342 12.8384 28.2653 12.5895 28.1346 12.3721C28.0039 12.1547 27.8163 11.9772 27.592 11.8588ZM8.88366 8.84209V8.28376C8.23084 8.19639 7.63687 7.86062 7.22538 7.34634C6.8139 6.83205 6.61662 6.17888 6.6746 5.5228C6.73259 4.86672 7.04137 4.25828 7.53667 3.82414C8.03198 3.38999 8.67564 3.1636 9.33366 3.19209C10.0181 3.19085 10.6759 3.45698 11.167 3.93376C11.6002 3.57641 12.0761 3.27411 12.5837 3.03376C12.0167 2.3818 11.2654 1.91696 10.429 1.70048C9.59252 1.48401 8.7101 1.52607 7.89803 1.82112C7.08595 2.11618 6.38234 2.65037 5.87993 3.3533C5.37753 4.05623 5.0999 4.89489 5.08366 5.75876C5.10115 6.81605 5.51216 7.82886 6.23641 8.59934C6.96066 9.36982 7.94613 9.84263 9.00033 9.92542C8.92963 9.56845 8.89059 9.20593 8.88366 8.84209ZM20.642 1.52542C20.0693 1.52555 19.5024 1.63985 18.9744 1.86163C18.4464 2.08341 17.968 2.40823 17.567 2.81709C18.1304 3.02123 18.6631 3.30162 19.1503 3.65042C19.5394 3.38036 19.9944 3.22095 20.4669 3.18918C20.9394 3.15741 21.4117 3.25448 21.8334 3.47003C22.2551 3.68557 22.6104 4.01153 22.8614 4.41313C23.1124 4.81473 23.2497 5.27692 23.2587 5.75042C23.2534 6.23679 23.1105 6.71172 22.8465 7.12024C22.5825 7.52876 22.2083 7.85415 21.767 8.05876C21.8005 8.31573 21.8172 8.57461 21.817 8.83376C21.8148 9.16873 21.7869 9.50304 21.7337 9.83376C22.6415 9.60037 23.4467 9.0734 24.0239 8.33489C24.6012 7.59637 24.9181 6.68774 24.9253 5.75042C24.9143 4.62318 24.4577 3.54609 23.6551 2.75446C22.8525 1.96282 21.7693 1.52097 20.642 1.52542Z" fill="#007EF2"/>
</svg>
