<svg width="31" height="30" viewBox="0 0 31 30" fill="none" xmlns="http://www.w3.org/2000/svg">
<path d="M15.5506 13.5915C14.6133 13.5817 13.6999 13.2947 12.9254 12.7668C12.1509 12.2389 11.5498 11.4937 11.198 10.6249C10.8461 9.75613 10.7591 8.80268 10.948 7.88459C11.1369 6.9665 11.5932 6.12481 12.2595 5.4655C12.9257 4.8062 13.7721 4.35874 14.6921 4.17948C15.6122 4.00022 16.5647 4.09716 17.4297 4.45809C18.2947 4.81903 19.0337 5.42783 19.5534 6.20785C20.0732 6.98786 20.3505 7.90421 20.3506 8.84154C20.3418 10.1073 19.8316 11.3179 18.9319 12.2082C18.0322 13.0985 16.8163 13.596 15.5506 13.5915ZM15.5506 5.7582C14.943 5.76806 14.3518 5.95723 13.8514 6.30197C13.351 6.6467 12.9636 7.13163 12.7379 7.69583C12.5121 8.26003 12.4582 8.87835 12.5827 9.47313C12.7073 10.0679 13.0048 10.6126 13.4379 11.0388C13.8711 11.4651 14.4205 11.7538 15.0172 11.8688C15.6139 11.9837 16.2313 11.9198 16.7918 11.6851C17.3523 11.4503 17.8309 11.0551 18.1676 10.5492C18.5042 10.0433 18.6838 9.44921 18.6839 8.84154C18.6751 8.01784 18.3406 7.23113 17.7535 6.65335C17.1663 6.07558 16.3743 5.75375 15.5506 5.7582Z" fill="#007EF2"/>
<path d="M15.5502 13.5915C14.6129 13.5817 13.6995 13.2947 12.925 12.7668C12.1505 12.2389 11.5494 11.4937 11.1976 10.6249C10.8457 9.75613 10.7588 8.80268 10.9476 7.88459C11.1365 6.9665 11.5928 6.12481 12.2591 5.4655C12.9253 4.8062 13.7717 4.35874 14.6918 4.17948C15.6118 4.00022 16.5643 4.09716 17.4293 4.45809C18.2943 4.81903 19.0333 5.42783 19.553 6.20785C20.0728 6.98786 20.3501 7.90421 20.3502 8.84154C20.3414 10.1073 19.8312 11.3179 18.9316 12.2082C18.0319 13.0985 16.8159 13.596 15.5502 13.5915ZM15.5502 5.7582C14.9426 5.76806 14.3515 5.95723 13.851 6.30197C13.3506 6.6467 12.9632 7.13163 12.7375 7.69583C12.5117 8.26003 12.4578 8.87835 12.5823 9.47313C12.7069 10.0679 13.0044 10.6126 13.4376 11.0388C13.8707 11.4651 14.4201 11.7538 15.0168 11.8688C15.6135 11.9837 16.2309 11.9198 16.7914 11.6851C17.3519 11.4503 17.8305 11.0551 18.1672 10.5492C18.5038 10.0433 18.6834 9.44921 18.6835 8.84154C18.6747 8.01784 18.3402 7.23113 17.7531 6.65335C17.1659 6.07558 16.3739 5.75375 15.5502 5.7582ZM18.4585 14.7082C14.7623 14.065 10.9572 14.6504 7.62519 16.3749C7.38867 16.5062 7.19282 16.7 7.05908 16.9352C6.92533 17.1704 6.85883 17.4378 6.86686 17.7082V20.6749C6.86686 20.8959 6.95466 21.1078 7.11094 21.2641C7.26722 21.4204 7.47918 21.5082 7.70019 21.5082C7.92121 21.5082 8.13317 21.4204 8.28945 21.2641C8.44573 21.1078 8.53353 20.8959 8.53353 20.6749V17.8165C11.6233 16.2662 15.1369 15.7743 18.5335 16.4165L18.4585 14.7082Z" fill="#007EF2"/>
<path d="M27.6999 18.3333H22.1165V17.0999C22.1165 16.8789 22.0287 16.667 21.8725 16.5107C21.7162 16.3544 21.5042 16.2666 21.2832 16.2666C21.0622 16.2666 20.8502 16.3544 20.6939 16.5107C20.5377 16.667 20.4499 16.8789 20.4499 17.0999V18.3333H14.3665C14.1455 18.3333 13.9336 18.4211 13.7773 18.5773C13.621 18.7336 13.5332 18.9456 13.5332 19.1666V27.4999C13.5332 27.7209 13.621 27.9329 13.7773 28.0892C13.9336 28.2455 14.1455 28.3333 14.3665 28.3333H27.6999C27.9209 28.3333 28.1328 28.2455 28.2891 28.0892C28.4454 27.9329 28.5332 27.7209 28.5332 27.4999V19.1666C28.5332 18.9456 28.4454 18.7336 28.2891 18.5773C28.1328 18.4211 27.9209 18.3333 27.6999 18.3333ZM26.8665 26.6666H15.1999V19.9999H20.4499V20.3416C20.4499 20.5626 20.5377 20.7746 20.6939 20.9309C20.8502 21.0871 21.0622 21.1749 21.2832 21.1749C21.5042 21.1749 21.7162 21.0871 21.8725 20.9309C22.0287 20.7746 22.1165 20.5626 22.1165 20.3416V19.9999H26.8665V26.6666Z" fill="#007EF2"/>
<path d="M18.3755 22.8504H23.3422V24.0171H18.3755V22.8504ZM9.23385 10.2004C6.92672 10.239 4.6596 10.8094 2.60885 11.8671C2.38582 11.9849 2.199 12.1611 2.06837 12.3769C1.93773 12.5926 1.86819 12.8399 1.86719 13.0921V15.6754C1.86719 15.8964 1.95498 16.1084 2.11127 16.2647C2.26755 16.421 2.47951 16.5088 2.70052 16.5088C2.92153 16.5088 3.1335 16.421 3.28978 16.2647C3.44606 16.1084 3.53385 15.8964 3.53385 15.6754V13.2588C5.49327 12.2834 7.66266 11.8055 9.85052 11.8671C9.56427 11.3448 9.35648 10.7832 9.23385 10.2004ZM27.7922 11.8588C25.9529 10.8939 23.9315 10.3261 21.8589 10.1921C21.7368 10.7739 21.5319 11.3351 21.2505 11.8588C23.2031 11.9055 25.1211 12.3836 26.8672 13.2588V15.6754C26.8672 15.8964 26.955 16.1084 27.1113 16.2647C27.2675 16.421 27.4795 16.5088 27.7005 16.5088C27.9215 16.5088 28.1335 16.421 28.2898 16.2647C28.4461 16.1084 28.5339 15.8964 28.5339 15.6754V13.0921C28.5344 12.8384 28.4655 12.5895 28.3348 12.3721C28.2041 12.1547 28.0165 11.9772 27.7922 11.8588ZM9.08385 8.84209V8.28376C8.43103 8.19639 7.83706 7.86062 7.42558 7.34634C7.0141 6.83205 6.81682 6.17888 6.8748 5.5228C6.93278 4.86672 7.24157 4.25828 7.73687 3.82414C8.23217 3.38999 8.87583 3.1636 9.53385 3.19209C10.2183 3.19085 10.8761 3.45698 11.3672 3.93376C11.8004 3.57641 12.2763 3.27411 12.7839 3.03376C12.2169 2.3818 11.4656 1.91696 10.6292 1.70048C9.79272 1.48401 8.9103 1.52607 8.09822 1.82112C7.28615 2.11618 6.58254 2.65037 6.08013 3.3533C5.57772 4.05623 5.3001 4.89489 5.28385 5.75876C5.30134 6.81605 5.71235 7.82886 6.4366 8.59934C7.16086 9.36982 8.14633 9.84263 9.20052 9.92542C9.12983 9.56845 9.09079 9.20593 9.08385 8.84209ZM20.8422 1.52542C20.2695 1.52555 19.7026 1.63985 19.1746 1.86163C18.6466 2.08341 18.1682 2.40823 17.7672 2.81709C18.3306 3.02123 18.8633 3.30162 19.3505 3.65042C19.7396 3.38036 20.1946 3.22095 20.6671 3.18918C21.1396 3.15741 21.6119 3.25448 22.0336 3.47003C22.4553 3.68557 22.8106 4.01153 23.0616 4.41313C23.3126 4.81473 23.4499 5.27692 23.4589 5.75042C23.4536 6.23679 23.3107 6.71172 23.0467 7.12024C22.7827 7.52876 22.4085 7.85415 21.9672 8.05876C22.0007 8.31573 22.0174 8.57461 22.0172 8.83376C22.015 9.16873 21.9871 9.50304 21.9339 9.83376C22.8417 9.60037 23.6469 9.0734 24.2241 8.33489C24.8014 7.59637 25.1183 6.68774 25.1255 5.75042C25.1145 4.62318 24.6579 3.54609 23.8553 2.75446C23.0527 1.96282 21.9695 1.52097 20.8422 1.52542Z" fill="#007EF2"/>
</svg>
