<svg width="56" height="56" viewBox="4 4 45 41" fill="none" xmlns="http://www.w3.org/2000/svg">
<g filter="url(#filter0_d_3311_2772)">
<rect x="8.2002" y="3" width="40" height="40" rx="16.1673" fill="#5DC327"/>
</g>
<g clip-path="url(#clip0_3311_2772)">
<path d="M37.3665 22.9917L35.3332 20.6667L35.6165 17.5917L32.6082 16.9083L31.0332 14.25L28.1999 15.4667L25.3665 14.25L23.7915 16.9083L20.7832 17.5833L21.0665 20.6667L19.0332 22.9917L21.0665 25.3167L20.7832 28.4L23.7915 29.0833L25.3665 31.75L28.1999 30.525L31.0332 31.7417L32.6082 29.0833L35.6165 28.4L35.3332 25.325L37.3665 22.9917ZM34.0749 24.225L33.6082 24.7667L33.6749 25.475L33.8249 27.1L32.2415 27.4583L31.5415 27.6167L31.1749 28.2333L30.3499 29.6333L28.8665 28.9917L28.1999 28.7083L27.5415 28.9917L26.0582 29.6333L25.2332 28.2417L24.8665 27.625L24.1665 27.4667L22.5832 27.1083L22.7332 25.475L22.7999 24.7667L22.3332 24.225L21.2582 23L22.3332 21.7667L22.7999 21.225L22.7249 20.5083L22.5749 18.8917L24.1582 18.5333L24.8582 18.375L25.2249 17.7583L26.0499 16.3583L27.5332 17L28.1999 17.2833L28.8582 17L30.3415 16.3583L31.1665 17.7583L31.5332 18.375L32.2332 18.5333L33.8165 18.8917L33.6665 20.5167L33.5999 21.225L34.0665 21.7667L35.1415 22.9917L34.0749 24.225Z" fill="white"/>
<path d="M26.6081 24.4586L24.6747 22.5169L23.4414 23.7586L26.6081 26.9336L32.7247 20.8003L31.4914 19.5586L26.6081 24.4586Z" fill="white"/>
</g>
<defs>
<filter id="filter0_d_3311_2772" x="0.790189" y="0.305452" width="54.82" height="54.82" filterUnits="userSpaceOnUse" color-interpolation-filters="sRGB">
<feFlood flood-opacity="0" result="BackgroundImageFix"/>
<feColorMatrix in="SourceAlpha" type="matrix" values="0 0 0 0 0 0 0 0 0 0 0 0 0 0 0 0 0 0 127 0" result="hardAlpha"/>
<feOffset dy="4.71546"/>
<feGaussianBlur stdDeviation="3.705"/>
<feColorMatrix type="matrix" values="0 0 0 0 0 0 0 0 0 0 0 0 0 0 0 0 0 0 0.02 0"/>
<feBlend mode="normal" in2="BackgroundImageFix" result="effect1_dropShadow_3311_2772"/>
<feBlend mode="normal" in="SourceGraphic" in2="effect1_dropShadow_3311_2772" result="shape"/>
</filter>
<clipPath id="clip0_3311_2772">
<rect width="20" height="20" fill="white" transform="translate(18.2002 13)"/>
</clipPath>
</defs>
</svg>
